<svg xmlns="http://www.w3.org/2000/svg" viewBox="0 0 547.03 601.76"><defs><style>.cls-1,.cls-2{fill:#1d1d1b;}.cls-2,.cls-3{stroke:#1d1d1b;stroke-miterlimit:10;stroke-width:2px;}.cls-3{fill:none;}</style></defs><g id="Capa_1" data-name="Capa 1"><path class="cls-1" d="M207.62,509.56a32.31,32.31,0,0,0,3.86-2.92,13.48,13.48,0,0,0,3.07-3.58,14.46,14.46,0,0,0,1.33-7.17,43.13,43.13,0,0,0-4.14-17.65"/><path class="cls-1" d="M208.88,511.72a26.41,26.41,0,0,0,7.13-6.31c1.94-2.69,2.4-6.06,2.37-9.3A46.26,46.26,0,0,0,213.9,477a2.52,2.52,0,0,0-3.42-.9,2.56,2.56,0,0,0-.9,3.42,40.36,40.36,0,0,1,3.78,15.71c.08,2.44.06,5-1.3,7.14a18.91,18.91,0,0,1-5.7,5c-2.68,1.76-.18,6.09,2.52,4.32Z"/><path class="cls-1" d="M211.85,477.8c3.23,5.5,8.58,9.55,14.44,12.08s12.22,3.67,18.57,4.34c29.24,3,58.89-3.53,88.08,0,5.81.7,11.58,1.79,17.42,2.12"/><path class="cls-1" d="M209.69,479.06c9.76,16.3,31.31,18.09,48.38,18.44,19.7.41,39.34-2.18,59-1.83a153.67,153.67,0,0,1,16.32,1.09c5.64.7,11.24,1.72,16.93,2.06,3.21.19,3.2-4.81,0-5-4.81-.29-9.56-1.07-14.34-1.72s-9.7-1.11-14.58-1.31c-9.56-.39-19.12,0-28.66.53s-19.12,1.15-28.7,1.22c-9.25.07-18.73-.19-27.8-2.15-8.73-1.88-17.52-5.91-22.27-13.85-1.65-2.76-6-.25-4.32,2.52Z"/><path class="cls-1" d="M323.68,407.65c2.46.93,4,3.28,5.43,5.5Q340,430.52,350,448.46l.22,1.16c13.87,4,28.52,3.9,42.93,4.68,15.85.85,31.72,2.8,46.89,7.47s29.63,12.18,41.1,23.14c3.44,3.3,6.68,7,8.23,11.53,2.81,8.18-.66,17.56-6.83,23.62s-14.58,9.3-23,11.32c-15.75,3.8-32.12,3.89-48.32,4-20.58.09-33.62.28-54.2.37h-6.35c-13-.48-26.77-1.49-41.13-3.22l-42.66-4.58c-12.66,2.66-25.37,5.32-38.27,6.29-9.91.75-20.46,1.19-30.39,1.51-29.81,1-51.51-.26-81.29-1-8.45-.21-24.62-3-32.33-6.4C72.72,523,64.84,510.06,65,497a26.63,26.63,0,0,1,2.31-11,29,29,0,0,1,8-9.75c12.54-10.4,29.47-13.48,45.62-15.62a699.51,699.51,0,0,1,87.61-6l1.9-2.18,14.76-25.62a198.77,198.77,0,0,1,11.75-18.73"/><path class="cls-1" d="M322.42,409.81c3.27,1.41,4.92,5.21,6.7,8.08q3.57,5.75,7,11.56c2.25,3.76,4.45,7.54,6.63,11.34q1.63,2.85,3.24,5.71a13,13,0,0,1,1.77,3.79,2.43,2.43,0,0,0,1.74,1.74c15.37,4.34,31.43,4,47.23,5s31.39,3.28,46.31,8.38c13.33,4.56,26.06,11.5,36.28,21.29,4.82,4.62,8.86,10,8.45,17-.39,6.5-4.19,12.42-9.12,16.47-5.47,4.49-12.35,7-19.13,8.65a133.1,133.1,0,0,1-23.6,3.42c-15.5,1-31.11.63-46.63.75-12.29.1-24.59.23-36.88.23-14.16,0-28.44-1.56-42.49-3.17-12.53-1.44-25.08-2.7-37.62-4a48.5,48.5,0,0,0-5.36-.58c-2.73,0-5.77,1.13-8.44,1.68-4.05.82-8.1,1.61-12.17,2.32-15.77,2.72-31.79,3.26-47.75,3.78-15.14.49-30.28.43-45.42,0-7.37-.19-14.74-.43-22.1-.65-6.71-.2-13.47-.11-20.14-.82a120.54,120.54,0,0,1-17.87-3.28c-5.4-1.43-10.47-3.4-14.7-7.16-9.28-8.25-14.69-23.79-8.31-35.34,3.31-6,9.32-10.29,15.25-13.42a76.44,76.44,0,0,1,19.11-6.65c15-3.36,30.67-4.7,46-6.07q24.8-2.21,49.72-2.66c1.95,0,3.9-.06,5.85-.08,1.57,0,3.16.26,4.39-.88a23.87,23.87,0,0,0,4.08-5.86l12.44-21.59a212.54,212.54,0,0,1,12.17-19.46c1.9-2.6-2.43-5.1-4.32-2.53-5.76,7.9-10.46,16.51-15.33,25l-7.59,13.17a48.19,48.19,0,0,1-5.09,7.9l1.76-.73c-31.63.21-63.5,2.23-94.78,7-12.9,2-26.22,5.13-37,12.85C71.21,476,66.3,480.91,64,487.43a33.34,33.34,0,0,0-.23,19.46,36.63,36.63,0,0,0,22.76,24.85c10.56,3.74,22.17,5.24,33.32,5.54,29.61.78,59.11,1.78,88.73.55A309.11,309.11,0,0,0,255,532.89l5.67-1.14a50.7,50.7,0,0,1,6.07-1.26,6.43,6.43,0,0,1,1.23,0l7.39.79q20,2.14,39.94,4.33a362.65,362.65,0,0,0,39,2.56c12.5,0,25-.15,37.51-.25,15.12-.11,30.31.26,45.39-.81,14-1,29.79-2.95,41.75-11,10.39-7,17.5-20.3,12-32.56-2.72-6-8-10.8-13.05-14.91a99.28,99.28,0,0,0-17.12-11.2c-12.89-6.66-26.94-10.69-41.22-13-15.41-2.48-30.91-2.6-46.43-3.71a110.41,110.41,0,0,1-22.2-3.58l1.75,1.75c-.66-3.5-3.35-6.91-5.11-10q-3.66-6.42-7.45-12.75-3.69-6.17-7.49-12.26c-2-3.2-4-6.91-7.62-8.47-2.93-1.26-5.48,3-2.53,4.31Z"/><path class="cls-1" d="M132.17,466.49c-1.44.2-2,2.21-1.29,3.47a5,5,0,0,0,3.67,2.06c3.15.52,6.39-.17,9.54.31,3.93.59,7.35,2.93,10.59,5.23,10.22,7.25,20.23,14.81,30.81,21.52,7.42,4.71,15.31,9.08,24,10.48"/><path class="cls-1" d="M131.5,464.08c-3.07.71-4.28,4.53-2.78,7.14,1.72,3,5.57,3.49,8.68,3.51s6.31-.34,9.37.94a41.87,41.87,0,0,1,7.83,4.89c11.23,8,22.22,16.47,34.14,23.45,6.22,3.64,12.91,6.76,20.08,8a2.57,2.57,0,0,0,3.07-1.75,2.51,2.51,0,0,0-1.74-3.07c-11.69-2-21.85-9-31.44-15.54-5.3-3.63-10.51-7.4-15.72-11.16-4.74-3.42-9.48-7.5-15-9.64-3.3-1.28-6.65-1.12-10.12-1.09-1.36,0-3.1.11-4.33-.59-.14-.09-.74-.46-.49-.29v-.21s-.2.26-.24.27c3.14-.72,1.81-5.54-1.33-4.82Z"/><path class="cls-1" d="M131.8,467.09c8.93-2,18.16.65,27,3.08s18.26,4.69,27,1.95c2.8-.88,5.46-2.26,8.37-2.64,5.25-.68,10.29,2,14.92,4.53a12.19,12.19,0,0,1,3.43,2.45"/><path class="cls-1" d="M132.46,469.5c10.85-2.33,21.62,2.33,32,4.73,5.32,1.22,10.88,2.06,16.34,1.43a31.75,31.75,0,0,0,7.69-1.86c2.31-.86,4.65-1.89,7.15-1.92a17.94,17.94,0,0,1,7.78,2c1.35.64,2.67,1.34,4,2.06a12.73,12.73,0,0,1,3.32,2.28c2.2,2.36,5.73-1.18,3.53-3.53-1.85-2-4.5-3.22-6.88-4.43a31.39,31.39,0,0,0-7.62-2.94,17.43,17.43,0,0,0-8.43.19c-2.57.71-5,1.91-7.56,2.57-11.1,2.84-22.43-2.19-33.11-4.62-6.43-1.46-13-2.19-19.54-.79-3.14.68-1.81,5.5,1.33,4.82Z"/><path class="cls-1" d="M181,369.25c1.94-7.93,6.73-15,8.27-23"/><path class="cls-1" d="M183.42,369.91c2-7.94,6.66-14.94,8.27-23a2.58,2.58,0,0,0-1.75-3.08,2.53,2.53,0,0,0-3.07,1.75c-1.61,8.06-6.27,15.06-8.27,23-.78,3.13,4,4.46,4.82,1.33Z"/><path class="cls-1" d="M103.64,434.38l-1.87-1.12-5.54-.13-3.88-1.29-1.54-4.13,1,.58a12,12,0,0,0,6.85,1.64,246.74,246.74,0,0,1,41,.94l-3.93-1.37a109.59,109.59,0,0,0,26.84-32.32c2.76-5.07,5.13-10.36,8.28-15.18s7.21-9.26,12.42-11.72l-1.5-2.45a346.34,346.34,0,0,0,11.77-52.28c3-20.47,4.19-41.54,11.95-60.72.4-1,1.19-2.2,2.24-1.94l2.21-2.46c-4.28-8.08-8-16.85-7.8-26s5-18.72,13.56-22l.65-1.58c-6.34-11.19-9.52-21.28-11.71-34a49.56,49.56,0,0,1-.83-13.25,60,60,0,0,1,3.44-13.51c7.78-22.46,17.8-44.73,34.17-62a21.57,21.57,0,0,1,6.71-5.25,19.74,19.74,0,0,1,7.28-1.33c6.13-.21,12.92.88,16.83,5.6l3.38-.79c4.93-2.91,10.81-3.85,16.53-3.8,4.75,0,9.59.77,13.79,3,5.74,3.06,9.69,8.61,13.12,14.14,10,16.15,15.18,22.68,19.47,41.17l1.88,10.49,0,.32c.81,12.09.2,24.62-4.89,35.61-6.73,14.53-20.29,24.47-33.43,33.67a1.1,1.1,0,0,0-.35,1.4l3.38,6.68a24,24,0,0,0,12.07,11.27l5.69,2.36c5.07,2.19,10.32,4.13,15,7a59.11,59.11,0,0,1,8.94,7,45.33,45.33,0,0,1,8.81,10.49c4.81,8.4,5.17,18.51,6,28.16A231.33,231.33,0,0,0,381.11,360a1.09,1.09,0,0,1,0,1l-1.61,2.93a1.1,1.1,0,0,0,.23,1.35A85.15,85.15,0,0,1,403,400.21a52,52,0,0,0,2.76,7.09,38.61,38.61,0,0,0,7,8.66c5.57,5.67,11.51,11.41,19,14a1.22,1.22,0,0,0,.6,0l6.36-1.3.16,0c4.28-.31,8.56.35,12.84.59a64.23,64.23,0,0,0,11.84-.41c2.37-.29,5-.94,6.18-3.05.49,1.88-1.82,3.16-3.68,3.71l-9,2.66a5.14,5.14,0,0,0-2,.9,4,4,0,0,0-1,3.54c.49,4.1,4.21,7.33,8.26,8.07a8.78,8.78,0,0,0,5.12-.47c4.22-1.89,5.34-7.26,5.92-11.85l.49-6.22a12.85,12.85,0,0,0,.71,8.13c.68,1.52,1.49,3.32,3.16,4C482,440,488.75,432.71,489,433s-2.22,2.3-3.93,3.93c-4.22,4-6.32,6-5.94,7,.73,1.8,8.4,0,8.53.6s-7,.21-13.32,5.23c-.82.65-1.67,1.38-2.57,2a1.1,1.1,0,0,0,.34,2,1.11,1.11,0,0,1-.14,2.18c-4.12.44-8.24,1.07-12.35.68-4.59-.44-9-2.15-13.2-4a212.12,212.12,0,0,1-88.91-72.38l-.18-.21a3.82,3.82,0,0,0-5.15.09l-28.61,27.15a1.12,1.12,0,0,1-.77.31l-84-.52a1.08,1.08,0,0,1-1.1-1,15.36,15.36,0,0,0-.76-3.49,41.67,41.67,0,0,1-1.15-8.63l-.91-14.23A28.29,28.29,0,0,0,219.07,356l-3.5-1.71a1.1,1.1,0,0,0-1.57.83c-2.34,14.16-9.64,27.19-18.82,38.24-9.51,11.45-21,21-32.47,30.52l-27.16,22.54a86.5,86.5,0,0,1-10.29,7.71,43,43,0,0,1-27.38,5.73c-5.6-.72-11.13-2.56-16.74-2.07L87.32,454l-15.09-8L81,444.48,72.23,436l8.38,5.16h0a4.89,4.89,0,0,0,4.88-4.64l.41-8.39.65,7.22,2,4.58a8.41,8.41,0,0,0,1.84,2.61l1.8,1.73a11.19,11.19,0,0,0,3.91,2.43l2.25.82c2.39.14,6.65-.23,8.29-2l1.07-1.25a4.25,4.25,0,0,0,.66-4.45h0A12,12,0,0,0,103.64,434.38Z"/><path class="cls-1" d="M104.9,432.22a8.33,8.33,0,0,0-3.17-1.46,35,35,0,0,0-3.55-.09c-.53,0-1.09-.07-1.62,0s.84.32-.35-.15c-1-.41-2.13-.71-3.19-1.06l1.75,1.74-1.55-4.12-3.68,2.82a16.25,16.25,0,0,0,8.74,2.57c4.63-.09,9.25-.43,13.88-.45a248.83,248.83,0,0,1,27.43,1.38c2.95.31,3.16-4,.66-4.91l-3.92-1.37,1.1,4.18a112.45,112.45,0,0,0,24.77-28.56c6.38-10.53,10.42-24.47,22.26-30.27a2.52,2.52,0,0,0,.9-3.42l-1.5-2.45.26,1.93a350.78,350.78,0,0,0,11.47-50.3c2.44-16.2,3.6-32.65,7.66-48.56a106.82,106.82,0,0,1,4.15-13.08c.17-.41.34-.8.54-1.19s-.65.26.39-.07a3.35,3.35,0,0,0,1.36-.93c.68-.69,1.3-1.45,1.95-2.17a2.6,2.6,0,0,0,.39-3c-6.21-11.8-12.09-28.15-2-39.69a18.27,18.27,0,0,1,2.86-2.7c1.32-1,3-1.42,4.29-2.39a5.48,5.48,0,0,0,1.42-2.56c.51-1.6-.45-2.79-1.19-4.17a91.15,91.15,0,0,1-7.86-19.7c-2-7.41-3.84-15.43-3.37-23.15s3.84-15.45,6.56-22.67c5.2-13.77,11.5-27.24,19.95-39.35a111.61,111.61,0,0,1,7.61-9.73c2.5-2.86,5.22-6.31,8.8-7.86s8.09-1.42,11.82-.9S268,76.12,270.4,79a2.48,2.48,0,0,0,2.43.64c1-.22,2-.41,2.93-.68,1.73-.5,3.26-1.59,5-2.18a35.33,35.33,0,0,1,13.48-1.57,23.7,23.7,0,0,1,13.2,4.39,37.26,37.26,0,0,1,8.33,9.74c8.56,13.29,17.1,26.55,20.3,42.29.36,1.8.65,3.63,1,5.44l.6,3.33c.07.41.15.82.22,1.24.14.83,0-.27.06.5.52,9.66.38,19.42-2.57,28.73-2.69,8.52-7.9,15.77-14.24,22a110.74,110.74,0,0,1-9.94,8.54c-3.44,2.64-7.33,4.89-10.62,7.7-2.52,2.17-.95,4.71.24,7.06,1,2.06,2,4.21,3.24,6.17a27,27,0,0,0,8.55,8.52c3.9,2.43,8.52,3.9,12.75,5.66a71.07,71.07,0,0,1,13.21,6.72,62.45,62.45,0,0,1,10.87,9.74c6.48,7.27,8.33,16.31,9.18,25.75.89,9.74,1.83,19.43,3.61,29.06a231.51,231.51,0,0,0,7.42,29.36q2.25,6.93,4.92,13.71c.88,2.22,1.8,4.43,2.74,6.63.16.38,1,3.11,1.38,3.16-1-.14.75-1.16.11-.55a4.83,4.83,0,0,0-.55,1,9.92,9.92,0,0,0-1.29,2.71c-.45,2.38,1.5,3.71,3,5.17A79.88,79.88,0,0,1,389,379.18,88.61,88.61,0,0,1,401.33,403a33.22,33.22,0,0,0,6.74,11.65,103.72,103.72,0,0,0,10,9.85,42.26,42.26,0,0,0,11,7.07,7,7,0,0,0,4.25.72c1.21-.22,2.4-.49,3.6-.74a31.56,31.56,0,0,1,9.11-.27,87.75,87.75,0,0,0,15.88.21c3.79-.38,7.73-1,9.91-4.46l-4.57-.6c-.06-.49-1.08.33-1.41.46-.89.36-1.86.56-2.78.83l-6,1.77c-3.08.92-5.48,2.45-5.65,6-.3,6.26,5.6,11.19,11.44,11.78,11.92,1.2,12.71-12.65,13.38-21.14.22-2.81-4.32-3.41-4.91-.67-1.17,5.38.51,15.39,7.61,15.56,2.58.06,5.09-1.27,7.15-2.7,1-.68,1.93-1.42,2.86-2.19a9.11,9.11,0,0,0,1.07-.9c.42-.45-.14,0,.17-.11l-1.93.25h0l-1.75-3.08c.11-.48.62-.72.06-.38a5.62,5.62,0,0,0-.69.69c-.58.57-1.18,1.12-1.77,1.68-1.4,1.33-2.82,2.65-4.18,4s-3.5,3.24-3.42,5.42c.1,2.55,2.66,3.35,4.79,3.44a23.66,23.66,0,0,0,3.47-.18l1.44-.13c1.66-.1.26.4-.79-1.13l-.25-1.92c.13-.69,2.13-1.31,1.1-1.48a4.1,4.1,0,0,0-1,.16c-1,.17-1.93.34-2.89.58a25.76,25.76,0,0,0-7.63,3.2c-1.17.74-2.21,1.63-3.3,2.47s-2.33,1.51-2.69,3a3.67,3.67,0,0,0,.92,3.39,2.55,2.55,0,0,0,.64.54c1,.52,1.89-1.69.76-2.21-.52-.24-2.11.24-2.7.31a36.87,36.87,0,0,1-10.49.06,47,47,0,0,1-10-3.26c-5.49-2.35-10.88-5-16.14-7.79a210.84,210.84,0,0,1-56.61-44.33q-6.13-6.76-11.64-14.06c-1.57-2.09-3-5-5.05-6.57a6.3,6.3,0,0,0-7.47-.08c-3.42,2.47-6.36,5.93-9.41,8.82L326.47,401a41.33,41.33,0,0,0-4.29,4.07c-.73.92.12-.4.53,0-.1-.09-.67,0-.79,0l-30.23-.18-41.21-.26c-3.59,0-7.28-.3-10.87-.07-.18,0-.6-.09-.76,0h0c.68-.46.88,1.49,1.29.43a3.13,3.13,0,0,0-.17-1c-.37-1.75-1-3.41-1.21-5.18-.47-3.28-.54-6.66-.75-10-.48-7.62-.53-15.16-4.28-22.08A31,31,0,0,0,223,355.28c-2.47-1.55-8-5.35-10.54-2.44-1,1.09-1,2.65-1.3,4s-.67,3-1.08,4.44a67.91,67.91,0,0,1-3.23,9,90.14,90.14,0,0,1-9.66,16.48c-7.9,10.8-17.93,19.9-28.09,28.51-10.93,9.28-22,18.35-33.08,27.51-5.15,4.28-10.24,8.71-16.41,11.46a40.61,40.61,0,0,1-18.87,3.35c-6.59-.4-12.92-2.8-19.57-2.34l1.26,4.66,6.18-3.73a2.52,2.52,0,0,0,0-4.32l-15.09-8-.6,4.57,8.77-1.55c1.89-.33,2.37-2.95,1.11-4.17L74,434.2l-3,3.93,5.74,3.52a28.34,28.34,0,0,0,2.58,1.59,5.38,5.38,0,0,0,4.68-.42c5.19-2.62,4.2-9.85,4.44-14.72h-5c.22,2.39.29,4.84.65,7.21a15.77,15.77,0,0,0,1.52,3.92,16.7,16.7,0,0,0,2.65,4.59,19.35,19.35,0,0,0,9.32,6c3.88,1,9.15-.41,11.7-3.48,4.26-5.13.51-11-4.34-14.14-2.72-1.73-5.23,2.59-2.52,4.32,1.57,1,4.42,3.48,3.8,5.51-.5,1.62-2.27,2.39-3.76,2.7a7.64,7.64,0,0,1-5-.28,13.38,13.38,0,0,1-4.58-3.14,10.8,10.8,0,0,1-2.47-3.62l-1-2.24c-.17-.37-.84-2.17-.46-.77s.09-.24.06-.58l-.21-2.41-.33-3.61a2.5,2.5,0,0,0-5,0l-.26,5.39c-.11,2.12.2,3.89-1.85,5-.37.21-1.32-.07-.06.27,1.46.4.61.23.48.08a3.4,3.4,0,0,0-.78-.48L78,436.6l-4.54-2.79c-2.42-1.49-5.07,1.94-3,3.93l8.77,8.51,1.11-4.18-8.78,1.55c-2.13.38-2.41,3.61-.6,4.57l15.1,8v-4.32l-6.19,3.73c-2,1.22-1.3,4.84,1.27,4.66,7.21-.49,14.15,2.28,21.35,2.41a46,46,0,0,0,19.61-4.11c6.54-2.93,12-7.7,17.43-12.23l18-14.94c21.45-17.81,45-35.86,55.34-62.76a67.68,67.68,0,0,0,2.94-9.76,10.81,10.81,0,0,0,.48-2.42c0-.84.72-.9-.91-.35-3.21,1.09-1,.1-.88.42.25.47,2,1,2.45,1.19a27.31,27.31,0,0,1,11.38,9.69c4.45,6.94,4.24,15,4.74,22.86.27,4.16.33,8.42,1.37,12.48.71,2.81.74,6.43,4.37,6.74a5.81,5.81,0,0,0,.59,0c3.79.1,7.59,0,11.38.07l44.1.28,19.32.11c2.82,0,5.73.25,8.54.06,1.88-.13,2.93-1.38,4.18-2.57l6.26-5.94,16.15-15.33a54.86,54.86,0,0,1,4.36-4.13c1.33-1,1.95-.15,2.81,1q2.73,3.82,5.65,7.53a210.55,210.55,0,0,0,26.35,28,216.47,216.47,0,0,0,30.88,22.81q8.21,5,16.86,9.24c6,2.95,12.34,6.14,18.91,7.69a34.76,34.76,0,0,0,11,.67c1.68-.14,3.35-.34,5-.54,1.51-.17,2.89-.41,3.74-1.83A3.63,3.63,0,0,0,475,453c-.23-.42-.74-1.21-1.24-1.34s-.44-.64-.3.8.35.8,1.12.2a23.89,23.89,0,0,1,8-4.44c1.77-.53,3.64-.64,5.4-1.15,2.07-.6,3.07-3.16,1.17-4.64-1.33-1-3.35-.53-4.89-.4-.92.08-2,0-2.86.12a4.58,4.58,0,0,1-.66-.08,12.82,12.82,0,0,1,.81,2c.18.13-.38.19,0,0,.58-.3,1.31-1.53,1.78-2,1.14-1.15,2.32-2.27,3.49-3.38,1.37-1.3,4.12-3.08,4.58-5a2.53,2.53,0,0,0-1.74-3.08c-1.66-.26-2.53.63-3.69,1.61a23.59,23.59,0,0,1-4.56,3.18c-1.9.93-3.09,1-4.16-1a10.9,10.9,0,0,1-1.07-7.51l-4.91-.66c-.44,5.59-.28,18.06-8.94,16a8,8,0,0,1-5.33-4c-.34-.72-1-2.37-.35-3.11s3.17-1.05,4-1.31c4.43-1.3,12.29-2.3,11.45-8.55-.31-2.28-3.55-2.23-4.57-.6-.9,1.44-2.93,1.67-4.47,1.87a58.06,58.06,0,0,1-8.23.45c-5.07,0-10.13-1-15.2-.74a45.32,45.32,0,0,0-6.51,1.16c-1.57.32-1.25.15-2.73-.52a34.51,34.51,0,0,1-6-3.54,80.23,80.23,0,0,1-9.95-9c-3.48-3.55-6.4-7-8.09-11.77-3-8.44-6.53-16.44-11.67-23.83a89.21,89.21,0,0,0-8.37-10.32c-.48-.5-3.87-4.51-4.39-4.32,1-.36-.93,1.87-.13.82a5.18,5.18,0,0,0,.31-.57c.31-.55.64-1.1.92-1.67a4.66,4.66,0,0,0-.11-4.49c-1-2.38-2.08-4.76-3-7.17q-2.71-6.76-5-13.68a234.7,234.7,0,0,1-7.55-28.93A290.87,290.87,0,0,1,363.61,279c-.82-9.13-2.25-18.46-7.79-26.05a59,59,0,0,0-21.66-18c-4.41-2.12-9-3.91-13.5-5.79-4-1.67-7.59-3.55-10.49-6.89A32.41,32.41,0,0,1,306,215.4l-1.59-3.15c-.07-.14-.34-.91-.51-1l0,0q-.39-.78,0,1.56c.21.08,1.36-1,1.64-1.16,14.19-10,28.53-21.37,34.31-38.41,3.09-9.12,3.67-19,3.23-28.51A100,100,0,0,0,341,131a84.14,84.14,0,0,0-6.36-19.5c-3.13-6.8-7.27-13.07-11.23-19.39-4.62-7.38-9.29-15.56-17.57-19.33-8.07-3.67-18.83-3.76-27.11-.66-1.47.55-2.87,1.46-4.31,1.93-.94.31-2,.47-2.92.69l2.43.65c-3.46-4-8.51-5.66-13.62-6.19-5.39-.56-11.53-.25-16.08,3s-8.16,7.84-11.54,12.16a135,135,0,0,0-9.87,14.45,202.94,202.94,0,0,0-14.69,31.31,160.09,160.09,0,0,0-5.69,16.74A46.84,46.84,0,0,0,201.9,166a106.59,106.59,0,0,0,12.22,36.1l-.25-1.92-.65,1.57L215,200c-8.51,3.44-13.78,11.61-15.06,20.53-1.57,11,2.8,21.62,7.8,31.14l.39-3-2.2,2.46,1.76-.73c-4.09-.14-5.21,5-6.27,8.07a121.94,121.94,0,0,0-3.6,12.44,252.84,252.84,0,0,0-4.27,25.22c-2.31,17.68-4.78,35.2-9.08,52.54q-1.78,7.18-3.88,14.29c-.55,1.87-1.87,4.31-1,6.2a25.44,25.44,0,0,0,1.46,2.39l.9-3.42c-12.13,5.94-16.64,19.32-23,30.25a108.43,108.43,0,0,1-25.06,29.36c-1.57,1.29-.5,3.62,1.1,4.18l3.92,1.37.67-4.91A252.43,252.43,0,0,0,113.8,427q-6.36,0-12.71.31c-2,.1-4,.36-6-.26a14.11,14.11,0,0,1-3-1.48c-1.76-1-4.46.72-3.67,2.82.51,1.37.93,2.81,1.54,4.13.87,1.88,3.22,2.31,5.08,2.86a16.53,16.53,0,0,0,4.39.34c.15,0,2.31.12,2.32.06-1.17-.42-1.48-.48-.93-.17l.64.39.94.56C105.14,438.21,107.66,433.89,104.9,432.22Z"/><circle class="cls-2" cx="166.3" cy="586.04" r="14.72"/></g><g id="Circulos"><circle class="cls-2" cx="104.48" cy="235.58" r="13.16"/><circle class="cls-2" cx="83.84" cy="347.58" r="7.48"/><circle class="cls-2" cx="22.55" cy="413.77" r="11.74"/><circle class="cls-2" cx="535.19" cy="329.26" r="10.84"/><circle class="cls-2" cx="463.65" cy="189.84" r="10.58"/><circle class="cls-2" cx="394.68" cy="229" r="6.58"/><circle class="cls-2" cx="369.9" cy="64.35" r="4.52"/><circle class="cls-2" cx="281" cy="14.16" r="13.16"/><circle class="cls-2" cx="124.72" cy="100.98" r="7.08"/><circle class="cls-2" cx="6.29" cy="162.16" r="5.29"/><circle class="cls-2" cx="369.9" cy="426.68" r="4.52"/><circle class="cls-2" cx="187.88" cy="225.16" r="2.74"/><circle class="cls-2" cx="353" cy="563.58" r="7.74"/></g><g id="Lineas"><path class="cls-3" d="M327,410.12c12.95-5.39,19.5-8.12,23.45-10.15,20.7-10.66,47.52-23.06,67.35-41.94,18.58-17.68,22.33-22.58,29.29-30.45,18.68-21.1,23.87-32.44,33.55-49.87a117.05,117.05,0,0,0,14.84-48.06c.69-8.56,1.54-20.88-4.13-34.59-7.21-17.42-20.67-26.67-31-33.54-14.47-9.67-34.12-14.77-57.29-21.17-30.74-8.49-52.53-10.77-57.8-11.35-13.1-1.44-22.43-1.7-36.13-2.06-25.95-.69-58.66-1.39-99.06,5.17-14.08,2.29-24.14,4-37.72,8.24a208.45,208.45,0,0,0-53.16,25.3c-11,7.42-35.11,24.18-54.19,55.74-6.81,11.27-20.24,34.06-23.23,67.09a145.51,145.51,0,0,0,11.88,72.26c12.22,26.78,29.69,42.34,39.74,51.1,26,22.66,52.24,31.59,70.71,37.68,7,2.31,24.12,7.6,53.67,11.35,31.19,4,91.55,11,160-11.35,36.9-12,51.46-24.57,58.84-32,17.69-17.81,25.15-37.59,28.39-46.46,9.1-24.88,8.63-45.75,8.26-57.29-1-31-10.35-53.11-12.39-57.8-7.28-16.74-15.58-27.21-26.32-40.78a279.81,279.81,0,0,0-54.2-52.13,246.45,246.45,0,0,0-52.12-29.93c-32.8-13.72-59.81-16.41-67.1-17-18-1.54-31.25-2.67-48,2.06-23.47,6.63-38,20.32-52.13,33.55a192.84,192.84,0,0,0-39.74,52.64c-8.73,17.3-24.48,48.49-19.61,89.3,4.18,35.13,21.45,59,29.41,69.67C150.87,390,174,403.33,197.65,417c22.9,13.24,34.36,19.86,47,20.65C252,438.1,261.33,437.4,327,410.12Z"/></g></svg>